<mxfile host="app.diagrams.net" modified="2024-08-06T01:40:55.275Z" agent="Mozilla/5.0 (X11; Linux x86_64; rv:128.0) Gecko/20100101 Firefox/128.0" etag="h05s20gAD-dfzwBV0_rr" version="24.2.1" type="device">
  <diagram name="Page-1" id="WdRzlpsvn2Tba9XeZmaN">
    <mxGraphModel dx="879" dy="488" grid="1" gridSize="10" guides="1" tooltips="1" connect="1" arrows="1" fold="1" page="1" pageScale="1" pageWidth="1169" pageHeight="827" background="none" math="0" shadow="0">
      <root>
        <mxCell id="0" />
        <mxCell id="1" parent="0" />
        <mxCell id="n87EDvqpTR0pAGlPv8mh-57" value="Gerente" style="shape=umlActor;verticalLabelPosition=bottom;verticalAlign=top;html=1;outlineConnect=0;" vertex="1" parent="1">
          <mxGeometry x="80" y="80" width="40" height="80" as="geometry" />
        </mxCell>
        <mxCell id="n87EDvqpTR0pAGlPv8mh-58" value="&lt;div&gt;&amp;lt;&amp;lt;CRUD&amp;gt;&amp;gt;&lt;/div&gt;&lt;div&gt;gerenciar&lt;/div&gt;&lt;div&gt;titulo&lt;br&gt;&lt;/div&gt;" style="ellipse;whiteSpace=wrap;html=1;" vertex="1" parent="1">
          <mxGeometry x="160" y="140" width="120" height="60" as="geometry" />
        </mxCell>
        <mxCell id="n87EDvqpTR0pAGlPv8mh-59" value="&lt;div&gt;&amp;lt;&amp;lt;CRUD&amp;gt;&amp;gt;&lt;/div&gt;&lt;div&gt;gerenciar&lt;/div&gt;&lt;div&gt;dvd&lt;br&gt;&lt;/div&gt;" style="ellipse;whiteSpace=wrap;html=1;" vertex="1" parent="1">
          <mxGeometry x="240" y="40" width="120" height="60" as="geometry" />
        </mxCell>
        <mxCell id="n87EDvqpTR0pAGlPv8mh-60" value="&lt;div&gt;&amp;lt;&amp;lt;CRUD&amp;gt;&amp;gt;&lt;/div&gt;&lt;div&gt;gerenciar&lt;/div&gt;classe" style="ellipse;whiteSpace=wrap;html=1;" vertex="1" parent="1">
          <mxGeometry x="320" y="140" width="120" height="60" as="geometry" />
        </mxCell>
        <mxCell id="n87EDvqpTR0pAGlPv8mh-61" value="&lt;div&gt;&amp;lt;&amp;lt;CRUD&amp;gt;&amp;gt;&lt;/div&gt;&lt;div&gt;gerenciar&lt;/div&gt;&lt;div&gt;categoria&lt;br&gt;&lt;/div&gt;" style="ellipse;whiteSpace=wrap;html=1;" vertex="1" parent="1">
          <mxGeometry x="400" y="40" width="120" height="60" as="geometry" />
        </mxCell>
        <mxCell id="n87EDvqpTR0pAGlPv8mh-62" value="&lt;div&gt;&amp;lt;&amp;lt;CRUD&amp;gt;&amp;gt;&lt;/div&gt;&lt;div&gt;gerenciar&lt;/div&gt;&lt;div&gt;socio&lt;br&gt;&lt;/div&gt;" style="ellipse;whiteSpace=wrap;html=1;" vertex="1" parent="1">
          <mxGeometry x="480" y="140" width="120" height="60" as="geometry" />
        </mxCell>
        <mxCell id="n87EDvqpTR0pAGlPv8mh-63" value="&lt;div&gt;&amp;lt;&amp;lt;CRUD&amp;gt;&amp;gt;&lt;/div&gt;&lt;div&gt;gerenciar&lt;/div&gt;&lt;div&gt;dependente&lt;br&gt;&lt;/div&gt;" style="ellipse;whiteSpace=wrap;html=1;" vertex="1" parent="1">
          <mxGeometry x="560" y="40" width="120" height="60" as="geometry" />
        </mxCell>
        <mxCell id="n87EDvqpTR0pAGlPv8mh-64" value="" style="endArrow=none;html=1;rounded=0;" edge="1" parent="1" source="n87EDvqpTR0pAGlPv8mh-57">
          <mxGeometry width="50" height="50" relative="1" as="geometry">
            <mxPoint x="170" y="130" as="sourcePoint" />
            <mxPoint x="860" y="120" as="targetPoint" />
          </mxGeometry>
        </mxCell>
        <mxCell id="n87EDvqpTR0pAGlPv8mh-65" value="" style="endArrow=none;html=1;rounded=0;exitX=0.5;exitY=0;exitDx=0;exitDy=0;" edge="1" parent="1" source="n87EDvqpTR0pAGlPv8mh-58">
          <mxGeometry width="50" height="50" relative="1" as="geometry">
            <mxPoint x="170" y="170" as="sourcePoint" />
            <mxPoint x="220" y="120" as="targetPoint" />
          </mxGeometry>
        </mxCell>
        <mxCell id="n87EDvqpTR0pAGlPv8mh-66" value="" style="endArrow=none;html=1;rounded=0;entryX=0.5;entryY=1;entryDx=0;entryDy=0;" edge="1" parent="1" target="n87EDvqpTR0pAGlPv8mh-59">
          <mxGeometry width="50" height="50" relative="1" as="geometry">
            <mxPoint x="300" y="120" as="sourcePoint" />
            <mxPoint x="230" y="130" as="targetPoint" />
          </mxGeometry>
        </mxCell>
        <mxCell id="n87EDvqpTR0pAGlPv8mh-67" value="" style="endArrow=none;html=1;rounded=0;exitX=0.5;exitY=0;exitDx=0;exitDy=0;" edge="1" parent="1">
          <mxGeometry width="50" height="50" relative="1" as="geometry">
            <mxPoint x="379.7" y="140" as="sourcePoint" />
            <mxPoint x="379.7" y="120" as="targetPoint" />
          </mxGeometry>
        </mxCell>
        <mxCell id="n87EDvqpTR0pAGlPv8mh-68" value="" style="endArrow=none;html=1;rounded=0;entryX=0.5;entryY=1;entryDx=0;entryDy=0;" edge="1" parent="1" target="n87EDvqpTR0pAGlPv8mh-61">
          <mxGeometry width="50" height="50" relative="1" as="geometry">
            <mxPoint x="460" y="120" as="sourcePoint" />
            <mxPoint x="250" y="150" as="targetPoint" />
          </mxGeometry>
        </mxCell>
        <mxCell id="n87EDvqpTR0pAGlPv8mh-69" value="" style="endArrow=none;html=1;rounded=0;entryX=0.5;entryY=0;entryDx=0;entryDy=0;" edge="1" parent="1" target="n87EDvqpTR0pAGlPv8mh-62">
          <mxGeometry width="50" height="50" relative="1" as="geometry">
            <mxPoint x="540" y="120" as="sourcePoint" />
            <mxPoint x="260" y="160" as="targetPoint" />
          </mxGeometry>
        </mxCell>
        <mxCell id="n87EDvqpTR0pAGlPv8mh-70" value="" style="endArrow=none;html=1;rounded=0;entryX=0.5;entryY=1;entryDx=0;entryDy=0;" edge="1" parent="1" target="n87EDvqpTR0pAGlPv8mh-63">
          <mxGeometry width="50" height="50" relative="1" as="geometry">
            <mxPoint x="620" y="120" as="sourcePoint" />
            <mxPoint x="270" y="170" as="targetPoint" />
          </mxGeometry>
        </mxCell>
        <mxCell id="n87EDvqpTR0pAGlPv8mh-71" value="Cliente" style="shape=umlActor;verticalLabelPosition=bottom;verticalAlign=top;html=1;outlineConnect=0;" vertex="1" parent="1">
          <mxGeometry x="80" y="240" width="40" height="80" as="geometry" />
        </mxCell>
        <mxCell id="n87EDvqpTR0pAGlPv8mh-73" value="&lt;div&gt;reservar&lt;/div&gt;&lt;div&gt;titulo&lt;br&gt;&lt;/div&gt;" style="ellipse;whiteSpace=wrap;html=1;" vertex="1" parent="1">
          <mxGeometry x="160" y="320" width="120" height="60" as="geometry" />
        </mxCell>
        <mxCell id="n87EDvqpTR0pAGlPv8mh-74" value="&lt;div&gt;consultar&lt;/div&gt;&lt;div&gt;titulo&lt;br&gt;&lt;/div&gt;" style="ellipse;whiteSpace=wrap;html=1;" vertex="1" parent="1">
          <mxGeometry x="320" y="320" width="120" height="60" as="geometry" />
        </mxCell>
        <mxCell id="n87EDvqpTR0pAGlPv8mh-76" value="" style="endArrow=none;html=1;rounded=0;" edge="1" parent="1" source="n87EDvqpTR0pAGlPv8mh-71">
          <mxGeometry width="50" height="50" relative="1" as="geometry">
            <mxPoint x="270" y="310" as="sourcePoint" />
            <mxPoint x="380" y="280" as="targetPoint" />
          </mxGeometry>
        </mxCell>
        <mxCell id="n87EDvqpTR0pAGlPv8mh-77" value="" style="endArrow=none;html=1;rounded=0;exitX=0.5;exitY=0;exitDx=0;exitDy=0;" edge="1" parent="1" source="n87EDvqpTR0pAGlPv8mh-73">
          <mxGeometry width="50" height="50" relative="1" as="geometry">
            <mxPoint x="270" y="310" as="sourcePoint" />
            <mxPoint x="220" y="280" as="targetPoint" />
          </mxGeometry>
        </mxCell>
        <mxCell id="n87EDvqpTR0pAGlPv8mh-78" value="" style="endArrow=none;html=1;rounded=0;exitX=0.5;exitY=0;exitDx=0;exitDy=0;" edge="1" parent="1" source="n87EDvqpTR0pAGlPv8mh-74">
          <mxGeometry width="50" height="50" relative="1" as="geometry">
            <mxPoint x="270" y="310" as="sourcePoint" />
            <mxPoint x="380" y="280" as="targetPoint" />
          </mxGeometry>
        </mxCell>
        <mxCell id="n87EDvqpTR0pAGlPv8mh-81" value="&lt;div&gt;&amp;lt;&amp;lt;CRUD&amp;gt;&amp;gt;&lt;/div&gt;&lt;div&gt;gerenciar&lt;/div&gt;&lt;div&gt;distribuidor&lt;br&gt;&lt;/div&gt;" style="ellipse;whiteSpace=wrap;html=1;" vertex="1" parent="1">
          <mxGeometry x="640" y="140" width="120" height="60" as="geometry" />
        </mxCell>
        <mxCell id="n87EDvqpTR0pAGlPv8mh-82" value="&lt;div&gt;&amp;lt;&amp;lt;CRUD&amp;gt;&amp;gt;&lt;/div&gt;&lt;div&gt;gerenciar&lt;/div&gt;&lt;div&gt;locacao&lt;/div&gt;" style="ellipse;whiteSpace=wrap;html=1;" vertex="1" parent="1">
          <mxGeometry x="720" y="40" width="120" height="60" as="geometry" />
        </mxCell>
        <mxCell id="n87EDvqpTR0pAGlPv8mh-83" value="&lt;div&gt;&amp;lt;&amp;lt;CRUD&amp;gt;&amp;gt;&lt;/div&gt;&lt;div&gt;gerenciar&lt;/div&gt;&lt;div&gt;pagamento&lt;br&gt;&lt;/div&gt;" style="ellipse;whiteSpace=wrap;html=1;" vertex="1" parent="1">
          <mxGeometry x="800" y="140" width="120" height="60" as="geometry" />
        </mxCell>
        <mxCell id="n87EDvqpTR0pAGlPv8mh-84" value="&lt;div&gt;cobrar&lt;/div&gt;&lt;div&gt;multa&lt;br&gt;&lt;/div&gt;" style="ellipse;whiteSpace=wrap;html=1;" vertex="1" parent="1">
          <mxGeometry x="800" y="320" width="120" height="60" as="geometry" />
        </mxCell>
        <mxCell id="n87EDvqpTR0pAGlPv8mh-85" value="" style="endArrow=none;html=1;rounded=0;" edge="1" parent="1" source="n87EDvqpTR0pAGlPv8mh-81">
          <mxGeometry width="50" height="50" relative="1" as="geometry">
            <mxPoint x="700" y="270" as="sourcePoint" />
            <mxPoint x="700" y="120" as="targetPoint" />
          </mxGeometry>
        </mxCell>
        <mxCell id="n87EDvqpTR0pAGlPv8mh-86" value="" style="endArrow=none;html=1;rounded=0;entryX=0.5;entryY=1;entryDx=0;entryDy=0;" edge="1" parent="1" target="n87EDvqpTR0pAGlPv8mh-82">
          <mxGeometry width="50" height="50" relative="1" as="geometry">
            <mxPoint x="780" y="120" as="sourcePoint" />
            <mxPoint x="810" y="130" as="targetPoint" />
          </mxGeometry>
        </mxCell>
        <mxCell id="n87EDvqpTR0pAGlPv8mh-87" value="" style="endArrow=none;html=1;rounded=0;exitX=0.5;exitY=0;exitDx=0;exitDy=0;" edge="1" parent="1" source="n87EDvqpTR0pAGlPv8mh-83">
          <mxGeometry width="50" height="50" relative="1" as="geometry">
            <mxPoint x="760" y="180" as="sourcePoint" />
            <mxPoint x="860" y="120" as="targetPoint" />
          </mxGeometry>
        </mxCell>
        <mxCell id="n87EDvqpTR0pAGlPv8mh-88" value="" style="endArrow=classic;html=1;rounded=0;entryX=0.5;entryY=1;entryDx=0;entryDy=0;exitX=0.5;exitY=0;exitDx=0;exitDy=0;dashed=1;" edge="1" parent="1" source="n87EDvqpTR0pAGlPv8mh-84" target="n87EDvqpTR0pAGlPv8mh-83">
          <mxGeometry width="50" height="50" relative="1" as="geometry">
            <mxPoint x="750" y="260" as="sourcePoint" />
            <mxPoint x="710" y="200" as="targetPoint" />
          </mxGeometry>
        </mxCell>
        <mxCell id="n87EDvqpTR0pAGlPv8mh-89" value="&amp;lt;&amp;lt;extend&amp;gt;&amp;gt;" style="text;html=1;align=center;verticalAlign=middle;whiteSpace=wrap;rounded=0;" vertex="1" parent="1">
          <mxGeometry x="870" y="240" width="60" height="40" as="geometry" />
        </mxCell>
      </root>
    </mxGraphModel>
  </diagram>
</mxfile>
